<svg width="3836" height="1252" xmlns="http://www.w3.org/2000/svg" xmlns:xlink="http://www.w3.org/1999/xlink" xml:space="preserve" overflow="hidden"><defs><clipPath id="clip0"><rect x="624" y="650" width="3836" height="1252"/></clipPath><clipPath id="clip1"><path d="M804.288 1073.97 918.203 807.02 1401.34 1013.18 1287.43 1280.14Z" fill-rule="evenodd" clip-rule="evenodd"/></clipPath><clipPath id="clip2"><path d="M804.288 1073.98 918.203 807.02 1401.34 1013.18 1287.43 1280.14Z" fill-rule="evenodd" clip-rule="evenodd"/></clipPath><clipPath id="clip3"><path d="M614.378 1519.03 918.206 807.013 1630.2 1110.83 1326.37 1822.85Z" fill-rule="evenodd" clip-rule="evenodd"/></clipPath><clipPath id="clip4"><path d="M1740.57 1083.75 1626.66 816.792 1143.52 1022.96 1257.43 1289.91Z" fill-rule="evenodd" clip-rule="evenodd"/></clipPath><clipPath id="clip5"><path d="M1740.57 1083.75 1626.66 816.792 1143.52 1022.96 1257.43 1289.91Z" fill-rule="evenodd" clip-rule="evenodd"/></clipPath><clipPath id="clip6"><path d="M1930.48 1528.8 1626.65 816.785 914.659 1120.6 1218.49 1832.62Z" fill-rule="evenodd" clip-rule="evenodd"/></clipPath></defs><g clip-path="url(#clip0)" transform="translate(-624 -650)"><rect x="624" y="852" width="3648" height="926" fill="#FFFFFF"/><rect x="752" y="884" width="3409" height="894" fill="#FFFFFF"/><g clip-path="url(#clip1)"><g clip-path="url(#clip2)"><g clip-path="url(#clip3)"><path d="M508.009 104.827 528.974 104.827 550.746 126.599 562.035 115.31 540.263 93.5381 540.263 72.5727C540.263 67.7345 537.038 64.509 532.2 64.509 527.361 64.509 524.136 67.7345 524.136 72.5727L524.136 88.6999 508.009 88.6999C503.171 88.6999 499.945 91.9254 499.945 96.7636 499.945 101.602 503.171 104.827 508.009 104.827Z" fill="#00B050" transform="matrix(0.392487 -0.919784 0.919762 0.392478 614.378 1519.03)"/><path d="M708.793 272.551C728.952 241.103 720.082 198.365 688.634 178.206L606.385 125.793C598.321 120.148 587.032 118.535 577.356 121.761 559.616 127.405 549.94 146.758 555.584 165.304L586.226 258.036C591.064 272.551 600.74 284.646 613.642 293.516 629.769 303.999 647.51 306.418 664.443 303.192 663.637 343.511 650.735 393.505 603.966 412.051 536.231 438.661 533.006 362.057 483.011 258.842 433.017 155.628 247.553 187.076 208.848 274.97 166.917 370.121 220.943 426.566 241.103 452.37 261.262 478.173 343.511 528.974 362.057 557.197 380.603 585.42 345.123 636.22 289.484 549.133 233.845 462.046 188.689 428.985 145.145 443.5 101.602 458.014 92.7317 508.009 112.891 564.454 133.05 620.9 208.848 658.799 185.463 677.345 172.562 687.828 107.246 685.409 72.5727 677.345 63.7027 674.926 58.8645 687.828 66.9281 691.859 111.278 717.663 208.848 741.854 233.845 692.666 266.1 630.576 197.559 618.48 169.336 547.521 141.114 476.561 196.753 525.749 217.718 555.584 238.683 585.42 277.389 657.186 330.609 676.539 383.829 695.891 448.338 636.22 452.37 567.68 456.401 499.139 392.699 474.141 354.8 443.5 316.901 412.858 265.293 341.898 330.609 306.418 395.924 270.938 434.63 380.603 451.563 419.309 468.497 458.014 508.009 486.237 556.391 491.881 604.772 497.526 658.799 474.141 693.472 411.245 716.857 369.314 711.212 317.707 701.536 281.421 703.955 279.002 706.374 275.776 708.793 272.551Z" fill="#00B050" transform="matrix(0.392487 -0.919784 0.919762 0.392478 614.378 1519.03)"/></g></g></g><text font-family="Arial,Arial_MSFontService,sans-serif" font-weight="700" font-size="596" transform="matrix(1 0 0 1 1784.19 1408)">ReciPys</text><text font-family="Avenir Next LT Pro,Avenir Next LT Pro_MSFontService,sans-serif" font-weight="400" font-size="183" transform="matrix(1 0 0 1 1806.57 1703)">Bake your Data with Python</text><g clip-path="url(#clip4)"><g clip-path="url(#clip5)"><g clip-path="url(#clip6)"><path d="M508.009 104.827 528.974 104.827 550.746 126.599 562.035 115.31 540.263 93.5381 540.263 72.5727C540.263 67.7345 537.038 64.509 532.2 64.509 527.361 64.509 524.136 67.7345 524.136 72.5727L524.136 88.6999 508.009 88.6999C503.171 88.6999 499.945 91.9254 499.945 96.7636 499.945 101.602 503.171 104.827 508.009 104.827Z" fill="#00B050" transform="matrix(-0.392487 -0.919784 -0.919762 0.392478 1930.48 1528.8)"/><path d="M708.793 272.551C728.952 241.103 720.082 198.365 688.634 178.206L606.385 125.793C598.321 120.148 587.032 118.535 577.356 121.761 559.616 127.405 549.94 146.758 555.584 165.304L586.226 258.036C591.064 272.551 600.74 284.646 613.642 293.516 629.769 303.999 647.51 306.418 664.443 303.192 663.637 343.511 650.735 393.505 603.966 412.051 536.231 438.661 533.006 362.057 483.011 258.842 433.017 155.628 247.553 187.076 208.848 274.97 166.917 370.121 220.943 426.566 241.103 452.37 261.262 478.173 343.511 528.974 362.057 557.197 380.603 585.42 345.123 636.22 289.484 549.133 233.845 462.046 188.689 428.985 145.145 443.5 101.602 458.014 92.7317 508.009 112.891 564.454 133.05 620.9 208.848 658.799 185.463 677.345 172.562 687.828 107.246 685.409 72.5727 677.345 63.7027 674.926 58.8645 687.828 66.9281 691.859 111.278 717.663 208.848 741.854 233.845 692.666 266.1 630.576 197.559 618.48 169.336 547.521 141.114 476.561 196.753 525.749 217.718 555.584 238.683 585.42 277.389 657.186 330.609 676.539 383.829 695.891 448.338 636.22 452.37 567.68 456.401 499.139 392.699 474.141 354.8 443.5 316.901 412.858 265.293 341.898 330.609 306.418 395.924 270.938 434.63 380.603 451.563 419.309 468.497 458.014 508.009 486.237 556.391 491.881 604.772 497.526 658.799 474.141 693.472 411.245 716.857 369.314 711.212 317.707 701.536 281.421 703.955 279.002 706.374 275.776 708.793 272.551Z" fill="#00B050" transform="matrix(-0.392487 -0.919784 -0.919762 0.392478 1930.48 1528.8)"/></g></g></g><g><g><g><path d="M766.5 628.104C744.144 628.104 721.788 622.781 702.625 612.135 683.462 622.781 661.106 628.104 638.75 628.104 616.394 628.104 594.037 622.781 574.875 612.135 555.712 622.781 533.356 628.104 511 628.104 488.644 628.104 466.287 622.781 447.125 612.135 427.962 622.781 405.606 628.104 383.25 628.104 360.894 628.104 338.537 622.781 319.375 612.135 300.212 622.781 277.856 628.104 255.5 628.104 233.144 628.104 210.787 622.781 191.625 612.135 175.656 620.652 158.623 624.91 140.525 627.04L157.558 766.5 851.667 766.5 869.765 625.975C855.925 623.846 842.085 619.587 830.375 612.135 811.212 622.781 788.856 628.104 766.5 628.104Z" transform="matrix(1 0 0 1.07252 752 868.288)"/><path d="M958.125 457.771C950.673 457.771 944.285 459.9 940.027 464.158 884.669 331.085 713.271 255.5 511 255.5 308.729 255.5 137.331 331.085 81.9729 464.158 77.7146 459.9 71.3271 457.771 63.875 457.771 45.7771 457.771 31.9375 471.61 31.9375 489.708 31.9375 542.938 74.5208 585.521 127.75 585.521 152.235 585.521 174.592 575.94 191.625 561.035 208.658 575.94 231.015 585.521 255.5 585.521 279.985 585.521 302.342 575.94 319.375 561.035 336.408 575.94 358.765 585.521 383.25 585.521 407.735 585.521 430.092 575.94 447.125 561.035 464.158 575.94 486.515 585.521 511 585.521 535.485 585.521 557.842 575.94 574.875 561.035 591.908 575.94 614.265 585.521 638.75 585.521 663.235 585.521 685.592 575.94 702.625 561.035 719.658 575.94 742.015 585.521 766.5 585.521 790.985 585.521 813.342 575.94 830.375 561.035 847.408 575.94 869.765 585.521 894.25 585.521 947.479 585.521 990.062 542.938 990.062 489.708 990.062 471.61 976.223 457.771 958.125 457.771ZM347.054 394.96C336.408 403.477 320.44 403.477 309.794 394.96 299.148 386.444 299.148 373.669 309.794 365.152 320.44 356.635 354.506 341.731 365.152 350.248 375.798 358.765 357.7 386.444 347.054 394.96ZM512.065 404.542C497.16 404.542 486.515 394.96 486.515 383.25 486.515 371.54 498.225 340.667 512.065 340.667 526.969 340.667 537.615 371.54 537.615 383.25 537.615 394.96 525.904 404.542 512.065 404.542ZM712.206 394.96C701.56 403.477 685.592 403.477 674.946 394.96 664.3 386.444 646.202 357.7 656.848 350.248 667.494 341.731 701.56 356.635 712.206 365.152 722.852 373.669 722.852 386.444 712.206 394.96Z" transform="matrix(1 0 0 1.07252 752 868.288)"/></g></g></g></g></svg>